<svg width="225" height="65" viewBox="0 0 225 65" fill="none" xmlns="http://www.w3.org/2000/svg">
    <g clip-path="url(#ix32h4ai9a)">
        <path d="M216.685 64.246H8.815c-4.4 0-7.815-3.302-7.815-7.468V8.972c0-4.166 3.414-7.467 7.815-7.467h207.87c4.401 0 7.815 3.301 7.815 7.467v47.806c0 4.166-3.414 7.468-7.815 7.468z" stroke="#fff"/>
        <path d="M79.325 17.258c0 1.275-.333 2.39-1.165 3.187-.997.957-2.161 1.435-3.658 1.435-1.497 0-2.66-.478-3.659-1.435-.997-.956-1.496-2.071-1.496-3.505 0-1.435.499-2.55 1.496-3.506.998-.956 2.162-1.434 3.659-1.434.665 0 1.33.16 1.995.478.666.319 1.165.637 1.497 1.115l-.831.797c-.666-.797-1.497-1.115-2.661-1.115-.998 0-1.996.318-2.66 1.115-.832.637-1.165 1.594-1.165 2.709 0 1.116.333 2.072 1.164 2.709.832.637 1.663 1.116 2.66 1.116 1.165 0 1.996-.32 2.828-1.116.499-.478.831-1.115.831-1.912h-3.658V16.62h4.823v.637zm7.65-3.983h-4.49v3.027h4.156v1.116h-4.157v3.027h4.49v1.275h-5.82v-9.56h5.82v1.115zm5.487 8.445h-1.33v-8.445h-2.828v-1.116h6.985v1.116h-2.827v8.445zm7.649 0v-9.56h1.331v9.56h-1.331zm6.985 0h-1.33v-8.445h-2.827v-1.116h6.818v1.116h-2.827v8.445h.166zm15.798-1.275c-.998.957-2.162 1.435-3.658 1.435-1.497 0-2.661-.478-3.659-1.435-.998-.956-1.497-2.071-1.497-3.505 0-1.435.499-2.55 1.497-3.506.998-.956 2.162-1.434 3.659-1.434 1.496 0 2.66.478 3.658 1.434.998.956 1.497 2.072 1.497 3.506 0 1.434-.499 2.55-1.497 3.505zm-6.319-.796c.665.637 1.663 1.115 2.661 1.115.997 0 1.995-.319 2.66-1.115a3.767 3.767 0 0 0 1.164-2.71c0-1.115-.332-2.07-1.164-2.708-.665-.638-1.663-1.116-2.66-1.116-.998 0-1.996.319-2.661 1.116a3.767 3.767 0 0 0-1.164 2.709c0 1.115.332 2.071 1.164 2.709zm9.645 2.071v-9.56h1.497l4.822 7.489v-7.49h1.331v9.561h-1.331l-5.155-7.808v7.808h-1.164z" fill="#fff" stroke="#fff" stroke-width="1.185" stroke-miterlimit="10"/>
        <path d="M113.748 35.743c-3.991 0-7.151 2.869-7.151 6.852 0 3.825 3.16 6.853 7.151 6.853 3.991 0 7.151-2.869 7.151-6.852 0-4.144-3.16-6.853-7.151-6.853zm0 10.836c-2.162 0-3.991-1.752-3.991-4.143 0-2.39 1.829-4.143 3.991-4.143s3.991 1.593 3.991 4.143c0 2.39-1.829 4.143-3.991 4.143zM98.282 35.743c-3.99 0-7.15 2.869-7.15 6.852 0 3.825 3.16 6.853 7.15 6.853 3.991 0 7.151-2.869 7.151-6.852 0-4.144-3.16-6.853-7.15-6.853zm0 10.836c-2.162 0-3.99-1.752-3.99-4.143 0-2.39 1.828-4.143 3.99-4.143s3.991 1.593 3.991 4.143c0 2.39-1.829 4.143-3.99 4.143zm-18.459-8.764v2.868h7.151c-.166 1.594-.831 2.869-1.663 3.665-.998.956-2.66 2.072-5.488 2.072-4.49 0-7.816-3.346-7.816-7.649s3.493-7.649 7.816-7.649c2.329 0 4.158.956 5.488 2.072l2.162-2.072c-1.83-1.593-4.157-2.868-7.483-2.868-5.987 0-11.142 4.78-11.142 10.517 0 5.737 5.155 10.517 11.142 10.517 3.326 0 5.654-.956 7.65-3.027 1.995-1.913 2.66-4.622 2.66-6.693 0-.638 0-1.275-.166-1.753h-10.31zm75.499 2.23c-.665-1.593-2.328-4.302-5.987-4.302-3.658 0-6.652 2.71-6.652 6.852 0 3.825 2.994 6.853 6.985 6.853 3.159 0 5.155-1.913 5.82-3.028l-2.328-1.593c-.831 1.115-1.829 1.912-3.492 1.912s-2.661-.638-3.492-2.072l9.478-3.824-.332-.797zm-9.645 2.232c0-2.55 2.162-3.984 3.658-3.984 1.164 0 2.328.637 2.661 1.434l-6.319 2.55zm-7.816 6.533h3.159V28.891h-3.159v19.92zm-4.989-11.633c-.832-.796-2.162-1.593-3.825-1.593-3.492 0-6.818 3.028-6.818 6.852 0 3.825 3.16 6.693 6.818 6.693 1.663 0 2.993-.797 3.659-1.593h.166v.956c0 2.55-1.497 3.983-3.825 3.983-1.829 0-3.16-1.274-3.492-2.39l-2.661 1.116c.832 1.752 2.827 3.983 6.319 3.983 3.659 0 6.652-2.071 6.652-7.011v-12.11h-2.993v1.114zm-3.659 9.402c-2.162 0-3.991-1.752-3.991-4.143 0-2.39 1.829-4.143 3.991-4.143s3.825 1.753 3.825 4.143c0 2.39-1.663 4.143-3.825 4.143zm40.577-17.688h-7.484v19.92h3.16v-7.49h4.324c3.492 0 6.818-2.39 6.818-6.215 0-3.825-3.326-6.215-6.818-6.215zm.166 9.561h-4.49V31.6h4.49c2.328 0 3.658 1.912 3.658 3.347-.166 1.752-1.496 3.505-3.658 3.505zm19.124-2.868c-2.328 0-4.656.956-5.488 3.028l2.827 1.115c.665-1.115 1.663-1.434 2.827-1.434 1.663 0 3.16.956 3.326 2.55v.159c-.499-.319-1.829-.797-3.159-.797-2.994 0-5.987 1.594-5.987 4.462 0 2.71 2.494 4.462 5.155 4.462 2.162 0 3.16-.956 3.991-1.912h.167v1.593h2.993v-7.649c-.333-3.505-3.16-5.577-6.652-5.577zm-.333 10.995c-.997 0-2.494-.478-2.494-1.752 0-1.594 1.829-2.072 3.326-2.072 1.33 0 1.995.319 2.827.637-.333 1.912-1.996 3.187-3.659 3.187zm17.462-10.517-3.493 8.605h-.166l-3.659-8.605h-3.325l5.487 12.11-3.159 6.694h3.159l8.481-18.804h-3.325zM178.271 48.81h3.159V28.891h-3.159v19.92z" fill="#fff"/>
        <path d="M17.795 12.956c-.5.478-.665 1.275-.665 2.23v35.218c0 .956.332 1.753.831 2.23l.166.16 20.621-19.76v-.318l-20.953-19.76z" fill="url(#kxm67j3lgb)"/>
        <path d="m45.4 39.727-6.818-6.533v-.478l6.818-6.534.166.16 8.149 4.461c2.328 1.275 2.328 3.347 0 4.622L45.4 39.727z" fill="url(#6uif5rvzhc)"/>
        <path d="m45.566 39.568-6.984-6.693-20.787 19.92c.831.796 1.995.796 3.492.158l24.28-13.385z" fill="url(#ws1hcyto5d)"/>
        <path d="M45.566 26.182 21.287 12.956c-1.497-.797-2.66-.638-3.492.16l20.787 19.759 6.984-6.693z" fill="url(#zsz6yrno9e)"/>
        <path opacity=".2" d="M45.4 39.408 21.287 52.475c-1.33.797-2.494.638-3.326 0l-.166.16.166.16c.832.636 1.996.796 3.326 0L45.4 39.407z" fill="#000"/>
        <path opacity=".12" d="M17.795 52.475c-.5-.478-.665-1.274-.665-2.23v.159c0 .956.332 1.753.831 2.23v-.159h-.166zm35.92-17.528L45.4 39.408l.166.16 8.149-4.462c1.164-.638 1.663-1.434 1.663-2.231 0 .797-.665 1.434-1.663 2.072z" fill="#000"/>
        <path opacity=".25" d="m21.287 13.115 32.428 17.688c.998.638 1.663 1.275 1.663 2.072 0-.797-.5-1.594-1.663-2.231L21.287 12.956c-2.328-1.275-4.157-.319-4.157 2.23v.16c0-2.39 1.829-3.506 4.157-2.23z" fill="#fff"/>
    </g>
    <defs>
        <linearGradient id="kxm67j3lgb" x1="36.753" y1="14.884" x2="10.033" y2="42.767" gradientUnits="userSpaceOnUse">
            <stop stop-color="#00A0FF"/>
            <stop offset=".007" stop-color="#00A1FF"/>
            <stop offset=".26" stop-color="#00BEFF"/>
            <stop offset=".512" stop-color="#00D2FF"/>
            <stop offset=".76" stop-color="#00DFFF"/>
            <stop offset="1" stop-color="#00E3FF"/>
        </linearGradient>
        <linearGradient id="6uif5rvzhc" x1="56.765" y1="32.877" x2="16.526" y2="32.877" gradientUnits="userSpaceOnUse">
            <stop stop-color="#FFE000"/>
            <stop offset=".409" stop-color="#FFBD00"/>
            <stop offset=".775" stop-color="orange"/>
            <stop offset="1" stop-color="#FF9C00"/>
        </linearGradient>
        <linearGradient id="ws1hcyto5d" x1="41.786" y1="36.534" x2="5.554" y2="74.345" gradientUnits="userSpaceOnUse">
            <stop stop-color="#FF3A44"/>
            <stop offset="1" stop-color="#C31162"/>
        </linearGradient>
        <linearGradient id="zsz6yrno9e" x1="12.635" y1="1.285" x2="28.815" y2="18.17" gradientUnits="userSpaceOnUse">
            <stop stop-color="#32A071"/>
            <stop offset=".069" stop-color="#2DA771"/>
            <stop offset=".476" stop-color="#15CF74"/>
            <stop offset=".801" stop-color="#06E775"/>
            <stop offset="1" stop-color="#00F076"/>
        </linearGradient>
        <clipPath id="ix32h4ai9a">
            <path fill="#fff" transform="translate(.5 .875)" d="M0 0h224.5v64H0z"/>
        </clipPath>
    </defs>
</svg>
