<svg width="225" height="65" viewBox="0 0 225 65" fill="none" xmlns="http://www.w3.org/2000/svg">
    <g clip-path="url(#50jv9puoia)">
        <path d="M218.012 64.17H6.549a6.005 6.005 0 0 1-4.22-1.72 5.843 5.843 0 0 1-1.75-4.155V7.463a5.85 5.85 0 0 1 1.75-4.158 6.014 6.014 0 0 1 4.22-1.725h211.46c.784 0 1.56.152 2.284.448.724.297 1.381.73 1.935 1.277a5.882 5.882 0 0 1 1.291 1.908c.299.714.452 1.478.452 2.25l.002 50.833c0 .77-.154 1.535-.453 2.247a5.872 5.872 0 0 1-1.291 1.907 5.975 5.975 0 0 1-1.934 1.274 6.03 6.03 0 0 1-2.283.446z" stroke="#fff"/>
        <path d="M49.356 32.526c-.049-5.365 4.448-7.974 4.653-8.096-2.546-3.666-6.493-4.167-7.88-4.207-3.316-.345-6.531 1.959-8.22 1.959-1.722 0-4.323-1.926-7.126-1.87-3.607.056-6.98 2.118-8.831 5.32-3.82 6.529-.971 16.124 2.688 21.401 1.83 2.587 3.969 5.471 6.768 5.37 2.74-.11 3.762-1.723 7.067-1.723 3.275 0 4.236 1.723 7.09 1.658 2.94-.045 4.79-2.597 6.557-5.205 2.115-2.96 2.964-5.88 2.998-6.03-.067-.023-5.707-2.15-5.764-8.578zM43.963 16.75c1.473-1.819 2.48-4.294 2.2-6.805-2.131.093-4.797 1.456-6.333 3.235-1.358 1.568-2.572 4.138-2.258 6.554 2.395.177 4.854-1.193 6.39-2.984zM89.025 52.031h-3.828l-2.096-6.505h-7.288l-1.997 6.505h-3.727l7.222-22.148h4.46l7.254 22.148zm-6.556-9.235-1.896-5.783c-.201-.591-.579-1.983-1.131-4.173h-.068c-.222.942-.578 2.333-1.065 4.172l-1.864 5.784h6.024zm25.091 1.053c0 2.717-.746 4.864-2.241 6.44-1.338 1.403-3.002 2.103-4.986 2.103-2.142 0-3.682-.754-4.617-2.265v8.38h-3.594V41.31c0-1.706-.045-3.455-.133-5.25h3.16l.2 2.532h.068c1.198-1.907 3.017-2.861 5.457-2.861 1.908 0 3.501.744 4.775 2.233 1.273 1.493 1.911 3.454 1.911 5.886zm-3.66.13c0-1.554-.354-2.836-1.065-3.846-.777-1.05-1.821-1.576-3.128-1.576-.887 0-1.693.293-2.412.87-.722.583-1.194 1.343-1.414 2.285a4.584 4.584 0 0 0-.167 1.08v2.665c0 1.16.36 2.14 1.082 2.943.721.799 1.658 1.2 2.811 1.2 1.353 0 2.407-.518 3.16-1.545.755-1.03 1.133-2.388 1.133-4.076zm22.262-.13c0 2.717-.747 4.864-2.242 6.44-1.34 1.403-3.001 2.103-4.987 2.103-2.142 0-3.682-.754-4.618-2.265v8.38h-3.593V41.31c0-1.706-.045-3.455-.133-5.25h3.16l.201 2.532h.067c1.197-1.907 3.015-2.861 5.457-2.861 1.906 0 3.499.744 4.777 2.233 1.27 1.493 1.911 3.454 1.911 5.886zm-3.663.13c0-1.554-.355-2.836-1.066-3.846-.777-1.05-1.817-1.576-3.125-1.576-.887 0-1.692.293-2.415.87-.722.583-1.192 1.343-1.413 2.285-.109.44-.168.798-.168 1.08v2.665c0 1.16.362 2.14 1.08 2.943.722.797 1.659 1.2 2.815 1.2 1.355 0 2.408-.518 3.16-1.545.755-1.03 1.132-2.388 1.132-4.076zm24.46 1.84c0 1.885-.667 3.418-1.994 4.601-1.459 1.292-3.497 1.94-6.109 1.94-2.413 0-4.348-.46-5.808-1.38l.831-2.958c1.576.922 3.307 1.381 5.191 1.381 1.355 0 2.408-.303 3.16-.903.754-.603 1.134-1.408 1.134-2.414 0-.9-.315-1.654-.933-2.268-.622-.613-1.65-1.183-3.095-1.708-3.927-1.446-5.892-3.561-5.892-6.344 0-1.817.695-3.305 2.08-4.469 1.385-1.162 3.222-1.742 5.508-1.742 2.041 0 3.741.35 5.091 1.052l-.901 2.892c-1.271-.679-2.705-1.018-4.31-1.018-1.267 0-2.262.307-2.973.92-.598.547-.901 1.215-.901 2.007 0 .874.345 1.6 1.033 2.169.596.524 1.685 1.095 3.259 1.707 1.932.77 3.351 1.665 4.259 2.693.915 1.029 1.37 2.312 1.37 3.841zm11.911-7.096h-3.961v7.755c0 1.972.698 2.955 2.097 2.955.642 0 1.174-.053 1.596-.164l.099 2.694c-.708.261-1.64.393-2.794.393-1.419 0-2.528-.428-3.329-1.283-.797-.856-1.198-2.289-1.198-4.306v-8.05h-2.359v-2.663h2.359V33.13l3.529-1.052v3.976h3.961v2.67zm17.834 5.191c0 2.455-.711 4.47-2.13 6.047-1.485 1.623-3.46 2.431-5.922 2.431-2.377 0-4.266-.777-5.675-2.33-1.409-1.556-2.113-3.516-2.113-5.881 0-2.475.728-4.502 2.179-6.078 1.454-1.578 3.413-2.367 5.875-2.367 2.373 0 4.279.779 5.722 2.333 1.378 1.508 2.064 3.456 2.064 5.845zm-3.724.082c0-1.463-.32-2.718-.963-3.768-.753-1.268-1.832-1.902-3.229-1.902-1.439 0-2.543.634-3.295 1.902-.643 1.05-.964 2.327-.964 3.835 0 1.464.321 2.722.964 3.77.777 1.267 1.861 1.902 3.265 1.902 1.373 0 2.45-.648 3.229-1.934.661-1.076.993-2.339.993-3.805zm15.409-4.815a6.334 6.334 0 0 0-1.132-.098c-1.264 0-2.242.47-2.93 1.415-.596.832-.896 1.884-.896 3.154v8.38h-3.593V41.09c.003-1.676-.032-3.353-.105-5.028h3.13l.131 3.056h.1c.381-1.05.977-1.898 1.796-2.532a4.382 4.382 0 0 1 2.597-.855c.332 0 .632.023.899.065l.003 3.385zm16.07 4.11a8.27 8.27 0 0 1-.131 1.609h-10.78c.04 1.578.563 2.786 1.564 3.618.908.742 2.083 1.115 3.526 1.115 1.596 0 3.052-.25 4.362-.754l.563 2.462c-1.531.659-3.338.987-5.422.987-2.508 0-4.477-.73-5.909-2.184-1.429-1.456-2.146-3.413-2.146-5.865 0-2.407.666-4.412 1.999-6.012 1.396-1.707 3.282-2.561 5.655-2.561 2.33 0 4.095.854 5.293 2.561.949 1.353 1.426 3.031 1.426 5.023zm-3.426-.921c.025-1.054-.211-1.96-.698-2.728-.622-.989-1.579-1.481-2.862-1.481-1.174 0-2.132.48-2.86 1.446-.598.767-.954 1.69-1.063 2.76l7.483.003zM74.776 22.052c-.999 0-1.864-.048-2.583-.13V11.214a19.806 19.806 0 0 1 3.042-.226c4.12 0 6.018 2.002 6.018 5.265 0 3.765-2.241 5.799-6.477 5.799zm.604-9.691c-.556 0-1.03.033-1.423.113v8.14c.213.033.62.048 1.194.048 2.7 0 4.237-1.518 4.237-4.36 0-2.535-1.39-3.941-4.008-3.941zm11.787 9.773c-2.322 0-3.827-1.713-3.827-4.038 0-2.423 1.537-4.151 3.959-4.151 2.288 0 3.827 1.631 3.827 4.023 0 2.453-1.586 4.166-3.959 4.166zm.068-6.914c-1.276 0-2.094 1.178-2.094 2.826 0 1.616.835 2.794 2.077 2.794s2.076-1.26 2.076-2.827c0-1.598-.817-2.793-2.06-2.793zm17.135-1.114-2.486 7.85h-1.62l-1.03-3.41c-.255-.833-.469-1.679-.638-2.534h-.034c-.13.856-.376 1.713-.637 2.535l-1.096 3.408h-1.636l-2.34-7.848h1.816l.9 3.73c.212.89.39 1.728.54 2.52h.033c.13-.66.342-1.486.654-2.502l1.129-3.747h1.44l1.08 3.667c.261.888.473 1.76.638 2.584h.048c.114-.807.295-1.664.539-2.584l.966-3.667 1.734-.002zm9.151 7.85h-1.766v-4.508c0-1.388-.539-2.083-1.603-2.083-1.046 0-1.766.888-1.766 1.922v4.668h-1.766V16.35c0-.694-.017-1.438-.066-2.245h1.554l.083 1.211h.048c.476-.838 1.44-1.371 2.52-1.371 1.669 0 2.764 1.26 2.764 3.31l-.002 4.7zm4.871 0h-1.768V10.504h1.768v11.45zm6.44.178c-2.321 0-3.828-1.713-3.828-4.038 0-2.423 1.538-4.151 3.958-4.151 2.29 0 3.827 1.631 3.827 4.023.002 2.453-1.586 4.166-3.957 4.166zm.066-6.914c-1.276 0-2.094 1.178-2.094 2.826 0 1.616.836 2.794 2.075 2.794 1.244 0 2.077-1.26 2.077-2.827.001-1.598-.815-2.793-2.058-2.793zm10.855 6.735-.128-.903h-.047c-.539.727-1.326 1.082-2.324 1.082-1.424 0-2.436-.986-2.436-2.31 0-1.938 1.701-2.94 4.645-2.94v-.145c0-1.033-.554-1.55-1.65-1.55-.783 0-1.471.194-2.076.582l-.359-1.147c.735-.453 1.652-.679 2.729-.679 2.076 0 3.124 1.082 3.124 3.247v2.891c0 .792.036 1.406.115 1.874l-1.593-.002zm-.243-3.91c-1.961 0-2.946.47-2.946 1.584 0 .823.508 1.226 1.212 1.226.899 0 1.734-.677 1.734-1.598v-1.211zm10.298 3.91-.082-1.26h-.049c-.508.953-1.36 1.439-2.552 1.439-1.916 0-3.335-1.665-3.335-4.006 0-2.455 1.471-4.185 3.48-4.185 1.063 0 1.817.355 2.241 1.067h.036v-4.505h1.768v9.335c0 .759.018 1.47.066 2.115h-1.573zm-.261-4.618c0-1.099-.737-2.035-1.861-2.035-1.309 0-2.11 1.146-2.11 2.76 0 1.583.831 2.667 2.075 2.667 1.11 0 1.896-.954 1.896-2.084v-1.308zm12.977 4.797c-2.321 0-3.826-1.713-3.826-4.038 0-2.423 1.538-4.151 3.958-4.151 2.29 0 3.827 1.631 3.827 4.023.002 2.453-1.584 4.166-3.959 4.166zm.066-6.914c-1.274 0-2.092 1.178-2.092 2.826 0 1.616.835 2.794 2.075 2.794 1.244 0 2.076-1.26 2.076-2.827.004-1.598-.814-2.793-2.059-2.793zm13.392 6.735h-1.768v-4.507c0-1.388-.539-2.083-1.603-2.083-1.046 0-1.764.888-1.764 1.922v4.668h-1.768V16.35c0-.694-.017-1.438-.066-2.245h1.554l.082 1.211h.049c.474-.838 1.44-1.373 2.518-1.373 1.669 0 2.766 1.26 2.766 3.31v4.702zm11.883-6.54h-1.943v3.81c0 .971.341 1.455 1.028 1.455.312 0 .573-.033.784-.081l.049 1.325c-.342.13-.801.195-1.37.195-1.392 0-2.225-.76-2.225-2.747v-3.957h-1.16v-1.308h1.16v-1.438l1.734-.518v1.954h1.943v1.31zm9.351 6.54h-1.765v-4.473c0-1.405-.537-2.116-1.602-2.116-.916 0-1.768.614-1.768 1.858v4.731h-1.765v-11.45h1.765v4.715h.035c.556-.856 1.362-1.277 2.39-1.277 1.682 0 2.71 1.292 2.71 3.344v4.668zm9.58-3.505h-5.301c.034 1.487 1.03 2.325 2.505 2.325.783 0 1.505-.13 2.142-.37l.274 1.21c-.751.324-1.636.485-2.666.485-2.486 0-3.957-1.551-3.957-3.956 0-2.406 1.507-4.216 3.758-4.216 2.031 0 3.305 1.487 3.305 3.732.012.265-.009.53-.06.79zm-1.62-1.243c0-1.212-.619-2.067-1.748-2.067-1.014 0-1.817.872-1.931 2.067h3.679z" fill="#fff"/>
    </g>
    <defs>
        <clipPath id="50jv9puoia">
            <path fill="#fff" transform="translate(0 .875)" d="M0 0h224.5v64H0z"/>
        </clipPath>
    </defs>
</svg>
