<svg width="53" height="53" viewBox="0 0 53 53" fill="none" xmlns="http://www.w3.org/2000/svg">
    <rect x="26.5" y="1.414" width="35.477" height="35.477" rx="4" transform="rotate(45 26.5 1.414)" stroke="#fff" stroke-width="2"/>
    <path d="M26.628 30.235a4.08 4.08 0 1 0 0-8.161 4.08 4.08 0 0 0 0 8.161z" fill="#fff"/>
    <path d="M31.535 16.488c-2.446-.067-7.34-.067-9.785 0-1.273.035-2.715.351-3.622 1.318-.942 1.005-1.298 2.22-1.334 3.578-.063 2.384 0 9.54 0 9.54.041 1.36.392 2.574 1.334 3.579.907.967 2.35 1.283 3.622 1.318 2.445.067 7.34.067 9.785 0 1.272-.035 2.715-.351 3.621-1.318.942-1.005 1.298-2.22 1.334-3.578v-9.54c-.036-1.36-.392-2.574-1.334-3.579-.907-.967-2.35-1.283-3.621-1.318zm-4.893 16.017a6.367 6.367 0 0 1-5.876-3.92 6.342 6.342 0 0 1 1.379-6.921 6.362 6.362 0 0 1 6.93-1.377 6.358 6.358 0 0 1 3.927 5.867c0 1.685-.67 3.3-1.863 4.491a6.365 6.365 0 0 1-4.497 1.86zm6.387-11.39a1.273 1.273 0 0 1-1.247-1.518 1.27 1.27 0 0 1 1-.998 1.274 1.274 0 0 1 1.52 1.246 1.27 1.27 0 0 1-1.273 1.27z" fill="#fff"/>
</svg>
