<svg width="53" height="53" viewBox="0 0 53 53" fill="none" xmlns="http://www.w3.org/2000/svg">
    <rect x="26.5" y="1.414" width="35.477" height="35.477" rx="4" transform="rotate(45 26.5 1.414)" stroke="#fff" stroke-width="2"/>
    <path fill-rule="evenodd" clip-rule="evenodd" d="M35.036 28.242c.785.766 1.614 1.487 2.318 2.331.311.375.606.762.831 1.197.32.62.03 1.3-.525 1.337l-3.448-.002c-.89.074-1.599-.284-2.195-.892-.478-.486-.92-1.004-1.379-1.507a3.264 3.264 0 0 0-.62-.551c-.47-.306-.88-.212-1.149.279-.273.5-.336 1.052-.363 1.608-.037.813-.282 1.026-1.098 1.063-1.743.082-3.397-.181-4.934-1.06-1.355-.776-2.405-1.87-3.32-3.11-1.78-2.412-3.144-5.063-4.37-7.788-.275-.614-.073-.943.604-.955a93.58 93.58 0 0 1 3.376-.001c.457.006.76.268.937.7.608 1.497 1.353 2.92 2.288 4.24.248.352.502.703.864.95.4.274.704.184.892-.262.12-.282.172-.587.199-.89.089-1.04.1-2.079-.056-3.116-.096-.647-.46-1.066-1.106-1.189-.33-.062-.28-.185-.121-.373.277-.324.538-.526 1.057-.526h3.898c.613.12.75.396.833 1.014l.004 4.328c-.007.24.119.949.55 1.107.344.112.571-.163.778-.382.933-.99 1.599-2.16 2.194-3.372.264-.533.49-1.086.71-1.64.164-.41.42-.612.882-.603l3.75.004c.111 0 .224.001.332.02.632.107.805.38.61.997-.308.968-.906 1.775-1.491 2.585-.626.866-1.295 1.702-1.915 2.572-.57.795-.525 1.196.183 1.887z" fill="#fff"/>
</svg>
