<svg width="53" height="53" viewBox="0 0 53 53" fill="none" xmlns="http://www.w3.org/2000/svg">
    <rect x="26.5" y="1.414" width="35.477" height="35.477" rx="4" transform="rotate(45 26.5 1.414)" stroke="#fff" stroke-width="2"/>
    <path d="M19.884 27.482c-.567 1.113.076 1.645 1.543 2.553 1.247.77 2.97 1.052 4.076 1.165l-4.36 4.194c-1.27 1.217.773 3.168 2.042 1.978l3.433-3.311c1.314 1.264 2.574 2.476 3.433 3.315 1.269 1.196 3.31-.74 2.056-1.977-.094-.09-4.652-4.462-4.374-4.194 1.12-.113 2.816-.411 4.049-1.165h-.001c1.466-.914 2.11-1.445 1.551-2.558-.337-.632-1.246-1.16-2.456-.247 0 0-1.633 1.252-4.268 1.252-2.637 0-4.27-1.252-4.27-1.252-1.208-.918-2.12-.385-2.454.247z" fill="#fff"/>
    <path d="M26.606 26.8c3.212 0 5.835-2.511 5.835-5.602 0-3.103-2.623-5.613-5.835-5.613-3.214 0-5.837 2.51-5.837 5.613 0 3.09 2.623 5.601 5.837 5.601zm0-8.372c1.578 0 2.866 1.24 2.866 2.77 0 1.519-1.288 2.757-2.866 2.757-1.579 0-2.866-1.238-2.866-2.757-.001-1.532 1.286-2.77 2.866-2.77z" fill="#fff"/>
</svg>
