<svg width="53" height="53" viewBox="0 0 53 53" fill="none" xmlns="http://www.w3.org/2000/svg">
    <rect x="26.5" y="1.414" width="35.477" height="35.477" rx="4" transform="rotate(45 26.5 1.414)" stroke="#fff" stroke-width="2"/>
    <path d="M36.49 20.617a8.045 8.045 0 0 1-2.322.624 3.917 3.917 0 0 0 1.773-2.223c-.8.475-1.653.8-2.56.974-.8-.849-1.782-1.274-2.948-1.274-1.115 0-2.066.394-2.853 1.18-.787.788-1.18 1.739-1.18 2.854 0 .3.033.608.1.924a11.24 11.24 0 0 1-4.64-1.242 11.436 11.436 0 0 1-3.678-2.979 3.952 3.952 0 0 0-.55 2.036c0 .69.163 1.332.487 1.923a4.03 4.03 0 0 0 1.312 1.436 4.002 4.002 0 0 1-1.823-.512v.05c0 .974.306 1.83.917 2.567a3.969 3.969 0 0 0 2.317 1.392c-.35.091-.704.137-1.061.137a5.15 5.15 0 0 1-.762-.062 3.947 3.947 0 0 0 1.423 1.992c.691.52 1.474.789 2.348.806-1.465 1.148-3.134 1.723-5.008 1.723-.358 0-.682-.017-.974-.05 1.874 1.207 3.938 1.81 6.195 1.81 1.432 0 2.776-.226 4.033-.68 1.258-.453 2.331-1.061 3.222-1.823a12.203 12.203 0 0 0 2.305-2.63 11.725 11.725 0 0 0 1.442-3.102 11.467 11.467 0 0 0 .462-3.766 8.447 8.447 0 0 0 2.023-2.085z" fill="#fff"/>
</svg>
